<svg width="124" height="124" viewBox="0 0 124 124" fill="none" xmlns="http://www.w3.org/2000/svg">
<g opacity="0.14">
<path d="M99.2282 40.8869C98.6079 40.073 97.8111 39.4102 96.8977 38.9482C95.9843 38.4863 94.9781 38.2373 93.9546 38.2199H42.9276C41.4594 38.2122 40.0352 38.7211 38.9046 39.6576C37.3824 37.2969 35.2654 35.3784 32.7664 34.0946C30.2673 32.8109 27.4743 32.2072 24.6679 32.3443C24.3089 32.3322 23.9512 32.3944 23.6174 32.5271C23.2836 32.6598 22.9808 32.86 22.7282 33.1153C22.4755 33.3705 22.2783 33.6752 22.1491 34.0103C22.0198 34.3453 21.9613 34.7034 21.9771 35.0622C21.993 35.4209 22.0829 35.7725 22.2412 36.0949C22.3995 36.4172 22.6228 36.7034 22.897 36.9353C23.1712 37.1673 23.4905 37.3401 23.8347 37.4428C24.1789 37.5456 24.5407 37.576 24.8972 37.5323C25.2724 37.5323 34.5899 37.2406 35.8405 46.7834C35.832 46.8735 35.832 46.9642 35.8405 47.0542C35.8207 47.3943 35.8207 47.7352 35.8405 48.0752L41.7603 69.4526C43.0735 76.245 48.1595 80.9747 54.1419 80.9747H81.6773C87.3678 80.9747 92.3913 76.5367 93.9129 70.161L100.771 48.5544V48.3461C101.087 47.0665 101.112 45.7324 100.845 44.4418C100.578 43.1511 100.026 41.9365 99.2282 40.8869V40.8869ZM95.7681 47.1376L88.9103 68.6817V68.89C87.9723 72.9321 85.0332 75.7658 81.7398 75.7658H54.1419C50.7026 75.7658 47.701 72.7655 46.8463 68.2858L41.1767 46.9084C41.0718 46.4155 41.0733 45.9059 41.1811 45.4137C41.289 44.9214 41.5006 44.4579 41.802 44.0539C41.9325 43.8738 42.1009 43.7245 42.2954 43.6165C42.4899 43.5085 42.7057 43.4444 42.9276 43.4288H93.9546C94.1945 43.4469 94.4273 43.518 94.6364 43.6369C94.8454 43.7558 95.0255 43.9196 95.1636 44.1164C95.4675 44.539 95.6785 45.0211 95.7827 45.5311C95.8869 46.041 95.8819 46.5672 95.7681 47.0751V47.1376Z" fill="#242526"/>
<path d="M57.2055 82.6211C55.7708 82.6211 54.3684 83.0463 53.1755 83.8431C51.9826 84.6398 51.0529 85.7722 50.5038 87.0971C49.9548 88.4221 49.8112 89.8799 50.091 91.2865C50.3709 92.693 51.0618 93.985 52.0763 94.999C53.0907 96.013 54.3832 96.7036 55.7903 96.9834C57.1975 97.2632 58.656 97.1196 59.9814 96.5708C61.3069 96.022 62.4398 95.0926 63.2368 93.9002C64.0339 92.7079 64.4593 91.306 64.4593 89.8719C64.4593 87.9489 63.6951 86.1046 62.3347 84.7448C60.9744 83.385 59.1293 82.6211 57.2055 82.6211V82.6211ZM57.2055 91.9138C56.7932 91.9138 56.3902 91.7916 56.0475 91.5627C55.7047 91.3337 55.4375 91.0083 55.2797 90.6276C55.122 90.2469 55.0807 89.8279 55.1611 89.4237C55.2415 89.0196 55.4401 88.6483 55.7316 88.3569C56.0231 88.0655 56.3945 87.8671 56.7988 87.7867C57.2032 87.7063 57.6223 87.7476 58.0032 87.9053C58.3841 88.063 58.7096 88.33 58.9386 88.6727C59.1677 89.0153 59.2899 89.4181 59.2899 89.8302C59.2899 90.3828 59.0703 90.9128 58.6794 91.3035C58.2885 91.6943 57.7583 91.9138 57.2055 91.9138Z" fill="#242526"/>
<path d="M80.7602 82.6211C79.3255 82.6211 77.9231 83.0463 76.7302 83.8431C75.5373 84.6398 74.6075 85.7722 74.0585 87.0971C73.5095 88.4221 73.3658 89.8799 73.6457 91.2865C73.9256 92.693 74.6165 93.985 75.631 94.999C76.6454 96.013 77.9379 96.7036 79.345 96.9834C80.7521 97.2632 82.2106 97.1196 83.5361 96.5708C84.8616 96.022 85.9945 95.0926 86.7915 93.9002C87.5886 92.7079 88.014 91.306 88.014 89.8719C88.014 87.9489 87.2498 86.1046 85.8894 84.7448C84.5291 83.385 82.684 82.6211 80.7602 82.6211V82.6211ZM80.7602 91.9138C80.3479 91.9138 79.9449 91.7916 79.6021 91.5627C79.2594 91.3337 78.9922 91.0083 78.8344 90.6276C78.6767 90.2469 78.6354 89.8279 78.7158 89.4237C78.7962 89.0196 78.9948 88.6483 79.2863 88.3569C79.5778 88.0655 79.9492 87.8671 80.3535 87.7867C80.7579 87.7063 81.177 87.7476 81.5579 87.9053C81.9388 88.063 82.2643 88.33 82.4933 88.6727C82.7224 89.0153 82.8446 89.4181 82.8446 89.8302C82.8446 90.3828 82.625 90.9128 82.2341 91.3035C81.8432 91.6943 81.313 91.9138 80.7602 91.9138Z" fill="#242526"/>
<path d="M68.2745 20.4053C67.5834 20.4053 66.9207 20.6797 66.4321 21.1681C65.9435 21.6565 65.6689 22.319 65.6689 23.0097V28.9687C65.6689 29.6595 65.9435 30.3219 66.4321 30.8104C66.9207 31.2988 67.5834 31.5732 68.2745 31.5732C68.9655 31.5732 69.6282 31.2988 70.1169 30.8104C70.6055 30.3219 70.88 29.6595 70.88 28.9687V23.0097C70.88 22.319 70.6055 21.6565 70.1169 21.1681C69.6282 20.6797 68.9655 20.4053 68.2745 20.4053V20.4053Z" fill="#242526"/>
<path d="M56.6019 24.135C56.1078 23.6551 55.446 23.3867 54.7572 23.3867C54.0683 23.3867 53.4065 23.6551 52.9124 24.135C52.6698 24.3769 52.4773 24.6643 52.3459 24.9808C52.2146 25.2972 52.147 25.6364 52.147 25.979C52.147 26.3215 52.2146 26.6607 52.3459 26.9772C52.4773 27.2936 52.6698 27.581 52.9124 27.8229L57.0813 31.9901C57.3183 32.2535 57.6065 32.4658 57.9284 32.6141C58.2503 32.7624 58.5991 32.8434 58.9534 32.8523C59.3077 32.8612 59.6601 32.7977 59.989 32.6658C60.318 32.5339 60.6165 32.3363 60.8664 32.0851C61.1163 31.8339 61.3123 31.5343 61.4424 31.2048C61.5725 30.8752 61.634 30.5226 61.6231 30.1685C61.6122 29.8144 61.5291 29.4663 61.379 29.1453C61.2288 28.8244 61.0148 28.5375 60.7499 28.3021L56.6019 24.135Z" fill="#242526"/>
<path d="M83.616 24.135C83.1219 23.6551 82.4601 23.3867 81.7713 23.3867C81.0824 23.3867 80.4206 23.6551 79.9265 24.135L75.7577 28.3021C75.515 28.5441 75.3225 28.8315 75.1912 29.1479C75.0598 29.4643 74.9922 29.8035 74.9922 30.1461C74.9922 30.4887 75.0598 30.8279 75.1912 31.1443C75.3225 31.4607 75.515 31.7481 75.7577 31.9901C76.2517 32.4699 76.9135 32.7383 77.6024 32.7383C78.2913 32.7383 78.953 32.4699 79.4471 31.9901L83.616 27.8229C83.8586 27.581 84.0511 27.2936 84.1825 26.9772C84.3138 26.6607 84.3815 26.3215 84.3815 25.979C84.3815 25.6364 84.3138 25.2972 84.1825 24.9808C84.0511 24.6643 83.8586 24.3769 83.616 24.135V24.135Z" fill="#242526"/>
<g opacity="0.25">
<path d="M92.8084 97.7269C92.8084 98.7478 91.8079 99.6854 90.182 100.352C88.1426 101.11 85.9789 101.477 83.8036 101.436H75.1741C75.1741 102.457 74.1736 103.394 72.5268 104.061C70.4869 104.816 68.3236 105.184 66.1485 105.144H41.4479C36.487 105.144 32.4432 103.498 32.4432 101.436C32.4432 100.415 33.4437 99.4979 35.0904 98.8103H33.8397C28.8788 98.8103 24.835 97.1435 24.835 95.1016C24.835 94.0598 25.8563 93.143 27.4822 92.4555C29.515 91.7001 31.6714 91.3326 33.8397 91.372H58.5403C62.7092 91.372 66.0859 92.4971 67.1907 94.039H83.8662C88.7855 94.0181 92.8084 95.6641 92.8084 97.7269Z" fill="#242526"/>
</g>
</g>
</svg>
